<svg width="1414" height="2150" viewBox="0 0 1414 2150" fill="none" xmlns="http://www.w3.org/2000/svg">
<g clip-path="url(#clip0_464_83)">
<path d="M1415 751.531C1414.34 752.734 1413.15 753.425 1413.08 754.21C1411.97 767.32 1411.58 780.519 1409.85 793.543C1407.56 810.817 1404.85 828.082 1401.22 845.119C1397.49 862.657 1392.72 879.993 1387.87 897.265C1385.65 905.155 1382.15 912.687 1379.16 920.355C1379 920.763 1378.21 920.921 1377.4 920.736C1380.9 908.236 1384.43 896.099 1388.64 884.206C1390.26 879.639 1389.28 877.514 1385.32 875.104C1352.11 854.835 1319.23 834 1285.81 814.07C1255.96 796.268 1225.67 779.172 1195.34 762.195C1172.84 749.602 1150.18 737.256 1127.2 725.585C1088.03 705.702 1048.56 686.431 1009.21 666.913C1000.45 662.567 991.666 658.264 982.893 653.94C989.137 643.923 995.023 633.659 1001.7 623.938C1015.7 603.548 1029.84 583.239 1044.48 563.299C1052.9 551.829 1062.41 541.165 1071.39 530.106C1090.62 506.418 1111.98 484.69 1134.04 463.71C1147.09 451.291 1161.04 439.751 1175.16 428.528C1188.51 417.911 1202.23 407.653 1216.46 398.254C1241.08 381.989 1267.01 368.079 1295.24 358.975C1302.47 356.645 1309.93 355.052 1317.25 353.017C1320.67 352.067 1322.63 354.098 1323.93 356.506C1333.69 374.527 1344 392.296 1352.74 410.804C1360.62 427.493 1367.53 444.746 1373.41 462.243C1381.29 485.728 1388.48 509.504 1394.61 533.501C1399.19 551.415 1402.01 569.817 1404.89 588.114C1407.44 604.262 1409.15 620.55 1410.95 636.807C1411.93 645.631 1412.31 654.521 1413.04 663.374C1413.13 664.415 1413.79 665.408 1414.59 666.211C1415 694.354 1415 722.708 1415 751.531Z" fill="#B6D432"/>
<path d="M471.813 41.9219C471.922 41.2545 471.883 40.0744 472.163 39.9931C487.216 35.6166 502.208 30.9883 517.396 27.1299C534.765 22.7175 552.234 18.6162 569.805 15.1109C581.65 12.7478 593.763 11.7504 605.729 9.95671C615.718 8.45931 625.628 6.37787 635.645 5.13805C644.777 4.00767 654.01 3.69723 663.192 2.93533C664.889 2.79452 666.55 2.22465 668.114 1.42641C704.354 1.00001 740.708 1.00001 777.531 1C778.946 1.66633 779.859 2.8606 780.842 2.92185C805.765 4.47392 830.351 8.30002 854.904 12.7881C887.956 18.8298 920.332 27.2951 951.743 39.0655C972.573 46.871 993.059 55.6876 1013.34 64.8534C1043.3 78.3992 1071.67 94.9373 1098.49 113.948C1115.06 125.69 1131.57 137.654 1146.99 150.826C1167.61 168.438 1187.67 186.791 1206.97 205.83C1220.59 219.258 1232.99 234 1245.16 248.796C1259.56 266.315 1273.16 284.496 1287.02 302.458C1289.5 305.666 1291.55 309.199 1294.06 312.967C1292.37 313.984 1290.76 315.089 1289.04 315.975C1261.82 329.978 1234.57 344.007 1209.38 361.483C1189.81 375.061 1170.91 389.604 1151.76 403.792C1147.94 406.624 1144.36 409.79 1140.06 412.739C1128.65 395.127 1118.64 377.023 1106.85 360.163C1090.61 336.928 1073.02 314.633 1056.16 291.644C1066.09 283.153 1069.56 272.58 1069.11 260.004C1068.53 243.89 1061.34 231.926 1047.19 224.896C1041.93 222.282 1035.2 221.489 1029.21 221.718C1018.51 222.128 1011.08 228.814 1004.9 237.153C1003.36 235.957 1002.13 234.928 1000.95 233.525C1005.92 220.136 1006.06 207.537 997.454 195.852C988.894 184.233 976.71 180.556 962.821 180.672C970.835 178.662 977.968 175.603 983.896 169.77C989.198 164.552 989.531 152.725 984.595 147.323C979.472 141.715 973.456 137.331 966.083 136.276C957.718 135.079 949.11 134.709 940.67 135.157C932.568 135.588 925.305 139.28 919.635 145.237C915.111 149.991 912.522 155.637 915.225 162.333C916.286 164.962 917.893 167.371 918.885 169.904C912.266 166.239 906.014 162.55 899.944 158.568C903.54 155.842 906.799 152.526 904.651 148.498C903.262 145.895 899.316 144.285 896.191 143.053C889.367 140.364 882.592 142.311 875.541 144.164C873.188 143.28 871.133 142.592 869.235 141.603C837.327 124.981 804.298 110.965 770.301 99.2415C734.498 86.8947 698.054 76.7616 660.975 69.0818C636.495 64.0116 611.924 59.2936 587.261 55.2157C566.854 51.8413 546.286 49.3595 525.73 46.9947C507.8 44.9321 489.788 43.5851 471.813 41.9219ZM1083.72 260.898C1096.89 269.292 1107.77 264.052 1110.2 248.939C1111.7 239.569 1109.9 231.049 1107.03 222.407C1103.57 212.022 1097.83 203.201 1088.96 196.761C1077.54 188.472 1065.56 192.931 1063.01 206.842C1059.05 228.52 1067.15 246.07 1083.72 260.898ZM988.612 142.956C998.165 147.001 1008.19 149.074 1018.43 147.705C1022.4 147.175 1027.22 144.837 1029.48 141.738C1032.22 137.959 1029.32 133.309 1026.22 130.149C1023.11 126.976 1019.66 123.972 1015.89 121.631C1002.93 113.564 988.888 109.189 973.409 109.936C968.228 110.186 963.053 110.675 960.688 115.798C958.158 121.278 962.2 125.181 965.531 128.912C966.742 130.268 968.079 131.643 969.629 132.541C975.653 136.032 981.785 139.334 988.612 142.956ZM1089.88 171.682C1078.56 155.99 1064.32 143.965 1046.11 136.997C1042.78 135.723 1038.54 134.603 1036.64 138.198C1035.3 140.728 1035.29 145.227 1036.68 147.728C1048.17 168.309 1065.02 182.996 1087.06 191.518C1092.16 193.487 1097.25 189.181 1095.73 183.931C1094.56 179.867 1092.12 176.168 1089.88 171.682ZM1120.86 298.944C1125.34 299.279 1126.43 295.462 1126.58 292.741C1127.17 282.085 1128.72 271.197 1122.83 261.254C1121.45 258.927 1120.12 255.811 1117.04 257.204C1114.94 258.153 1112.49 260.891 1112.29 263.019C1111.69 269.655 1111.06 276.601 1112.41 283.007C1113.59 288.53 1117.47 293.478 1120.86 298.944ZM925.92 105.593C926.959 106.725 927.785 108.395 929.07 108.903C939.821 113.152 950.893 113.027 961.988 110.581C963.484 110.251 964.673 108.532 966.005 107.456C964.691 106.201 963.592 104.382 962.027 103.786C953.499 100.538 944.527 100.371 935.624 101.247C932.39 101.565 929.326 103.606 925.92 105.593ZM1130.64 329.691C1132.31 323.576 1132.34 317.499 1129.96 311.563C1129.45 310.295 1128.39 309.25 1127.58 308.102C1126.4 309.099 1124.55 309.884 1124.16 311.128C1122.16 317.49 1121.82 323.961 1124.71 330.2C1126.3 333.623 1128.29 333.912 1130.64 329.691ZM920.485 108.076C921.885 104.45 918.647 103.872 916.823 103.737C910.098 103.239 903.328 103.183 896.58 103.276C895.502 103.291 894.447 104.92 893.382 105.803C894.413 106.74 895.29 108.051 896.502 108.553C904.249 111.761 912.06 111.638 920.485 108.076Z" fill="#397AAC"/>
<path d="M1318.47 2151C1318 2146.52 1318 2142.04 1318 2137.51C1318.63 2137.3 1319.09 2136.98 1319.5 2137.04C1329.64 2138.52 1335.86 2134.31 1339.17 2124.58C1341.59 2117.48 1345.38 2110.84 1347.8 2103.74C1348.7 2101.08 1348.22 2097.37 1347.08 2094.7C1335.42 2067.46 1323.47 2040.34 1311.64 2013.17C1307.16 2002.9 1302.79 1992.59 1298.29 1982.13C1303.42 1982.13 1308.36 1982.13 1313.81 1982.13C1320.92 1999.2 1328.05 2016.48 1335.32 2033.71C1342.53 2050.8 1349.88 2067.83 1357.7 2086.1C1360.39 2079.23 1362.71 2073.36 1365 2067.48C1374.76 2042.42 1384.4 2017.32 1394.32 1992.33C1398.56 1981.66 1398.83 1981.77 1410.49 1982.02C1410.82 1982.02 1411.15 1982.12 1412.23 1982.3C1409.47 1989.15 1406.75 1995.84 1404.08 2002.55C1395.37 2024.41 1386.79 2046.32 1377.94 2068.12C1368.78 2090.67 1359.18 2113.04 1350.13 2135.63C1347.09 2143.23 1341.2 2147.1 1334.71 2150.68C1329.65 2151 1324.29 2151 1318.47 2151Z" fill="white"/>
<path d="M1 2028.47C1.66795 2027.18 2.71076 2026.46 2.94778 2025.53C6.69267 2010.87 14.0651 1998.51 26.6727 1989.94C49.3025 1974.54 81.3695 1976.73 99.6127 1995.24C102.969 1998.65 105.476 2002.89 108.778 2007.29C103.302 2009.02 98.5208 2010.53 93.7686 2012.03C81.4377 1991.39 56.7602 1987.41 37.8394 1999.17C24.4909 2007.47 17.9922 2020.48 16.9887 2036.2C15.9723 2052.12 20.4156 2066.04 31.9064 2077.4C50.8136 2096.09 82.488 2091.13 94.3567 2070.2C94.6016 2069.77 94.9349 2069.38 95.2514 2068.94C100.02 2070.43 104.53 2071.84 109.333 2073.33C101.503 2090.06 87.952 2097.96 70.8144 2101.02C54.0565 2104.02 39.091 2100.04 25.4616 2090.09C13.2061 2081.14 6.29115 2068.92 2.9734 2054.38C2.73733 2053.34 2.12901 2052.39 1.34688 2051.7C0.99999 2044.31 0.99999 2036.62 1 2028.47Z" fill="white"/>
<path d="M471.492 42.082C489.789 43.5851 507.8 44.9321 525.73 46.9947C546.286 49.3595 566.854 51.8413 587.261 55.2157C611.924 59.2936 636.495 64.0116 660.975 69.0818C698.054 76.7616 734.498 86.8947 770.301 99.2415C804.298 110.965 837.327 124.981 869.235 141.603C871.133 142.592 873.188 143.28 875.331 144.404C874.733 145.019 873.944 145.281 873.219 145.665C866.097 149.434 862.585 153.529 864.158 157.172C866.703 163.065 872.36 163.639 877.896 164.057C885.738 164.648 892.874 162.278 899.761 158.861C906.014 162.55 912.266 166.239 918.828 169.945C919.138 169.962 919.016 169.893 919.154 170.181C919.885 170.631 920.478 170.792 921.041 170.974C921.013 170.995 921.022 170.925 921.098 171.183C921.477 171.619 921.779 171.798 922.046 171.982C922.011 171.989 922.011 171.918 922.159 172.194C922.895 172.645 923.483 172.819 924.034 172.999C923.998 173.004 923.987 172.932 924.083 173.184C924.48 173.619 924.781 173.804 925.043 173.989C925.006 173.99 925.007 173.914 925.155 174.193C925.893 174.64 926.484 174.808 927.04 174.984C927.005 174.991 927.002 174.921 927.085 175.179C927.472 175.613 927.776 175.791 928.045 175.976C928.01 175.983 928.026 175.913 928.148 176.233C933.934 180.471 939.598 184.389 945.063 188.57C931.671 199.093 925.786 216.616 932.965 231.873C939.463 245.681 950.144 253.576 965.618 254.114C981.469 254.665 992.794 247.02 1000.9 233.899C1002.13 234.928 1003.36 235.957 1004.82 237.493C999.805 248.165 998.527 258.542 1001.97 269.722C1007.89 288.932 1030.81 308.323 1056.01 291.936C1073.02 314.633 1090.61 336.928 1106.85 360.163C1118.64 377.023 1128.65 395.127 1139.74 412.853C1135.97 416.57 1131.75 419.948 1127.88 423.679C1115.19 435.883 1102.01 447.658 1090.16 460.635C1074.35 477.946 1058.94 495.71 1044.57 514.229C1027.15 536.702 1010.79 560.018 994.383 583.265C986.548 594.37 979.683 606.159 972.144 618.006C962.543 612.891 952.779 607.52 942.863 602.445C928.071 594.873 913.385 587.044 898.272 580.164C874.403 569.298 850.261 559.027 826.157 548.687C781.8 529.66 736.446 513.256 690.392 498.923C654.097 487.628 617.477 477.359 580.887 467.04C559.542 461.02 538.079 455.336 516.477 450.332C488.204 443.783 459.759 437.97 431.354 432.003C413.242 428.199 395.114 424.431 376.907 421.119C358.498 417.771 339.983 415.001 321.513 411.986C301.121 408.656 280.762 405.099 260.324 402.086C244.167 399.705 227.914 397.976 211.699 395.995C195.145 393.971 178.593 391.924 162.026 390.015C146.746 388.253 131.446 386.656 116.154 384.997C105.279 383.817 94.4009 382.655 82.7041 381.396C91.0572 366.818 98.7685 351.969 107.783 337.959C120.7 317.884 134.261 298.2 148.156 278.785C155.571 268.426 163.845 258.596 172.469 249.204C190.063 230.045 207.574 210.743 226.231 192.645C240.916 178.402 256.806 165.281 273 152.747C291.252 138.62 310.112 125.209 329.336 112.433C343.773 102.837 359 94.3621 374.25 86.0769C388.809 78.1671 403.635 70.6663 418.741 63.8693C434.66 56.7063 451.052 50.593 467.232 44.0092C468.565 43.4671 469.859 42.8333 471.492 42.082ZM905.364 227.441C895.374 230.678 888.079 238.595 888.073 247.014C888.067 255.544 891.768 262.286 899.281 266.726C907.13 271.364 914.663 270.251 922.05 265.619C934.83 257.604 934.732 236.165 920.134 229.458C916.008 227.563 910.858 227.896 905.364 227.441ZM1012.86 333.312C1014.03 337.068 1014.58 341.189 1016.51 344.502C1020.06 350.593 1026.03 354.466 1032.99 353.706C1043.36 352.571 1050.51 344.836 1052.66 334.558C1054.86 324.049 1048.54 311.792 1039.61 309.232C1028.62 306.084 1017.58 312.369 1013.95 324.077C1013.14 326.716 1013.18 329.623 1012.86 333.312ZM1017.9 376.599C1014.21 384.381 1017.21 392.374 1024.11 393.162C1028.72 393.688 1033.61 390.761 1034.87 386.726C1036.44 381.691 1034.76 375.497 1031.17 373.071C1027.54 370.617 1022.57 371.738 1017.9 376.599ZM870.641 255.338C863.105 254.215 857.709 257.329 856.944 263.243C856.267 268.471 859.446 273.311 864.476 274.712C868.94 275.955 874.446 273.197 876.439 268.721C878.591 263.886 876.787 259.268 870.641 255.338ZM847.479 166.001C847.968 164.226 849.388 161.799 848.715 160.839C847.852 159.61 844.98 158.655 843.544 159.17C838.623 160.936 833.811 163.155 829.276 165.755C828.064 166.45 826.986 169.977 827.606 170.702C828.744 172.036 831.534 173.265 833.024 172.754C837.823 171.111 842.344 168.654 847.479 166.001Z" fill="#568FFF"/>
<path d="M982.676 653.953C991.666 658.264 1000.45 662.567 1009.21 666.913C1048.56 686.431 1088.03 705.702 1127.2 725.585C1150.18 737.256 1172.84 749.602 1195.34 762.195C1225.68 779.172 1255.96 796.268 1285.81 814.07C1319.23 834 1352.11 854.835 1385.32 875.104C1389.28 877.514 1390.26 879.639 1388.64 884.206C1384.43 896.1 1380.9 908.236 1377.08 920.653C1373.64 931.449 1370.84 942.119 1366.67 952.232C1358 973.311 1349.38 994.475 1339.32 1014.91C1324.23 1045.6 1305.23 1074.05 1286.1 1102.36C1280.69 1110.36 1275.36 1118.42 1269.88 1126.38C1268.97 1127.71 1267.52 1128.68 1266.51 1129.63C1237.35 1119.06 1208.37 1108.2 1179.16 1098.05C1128.41 1080.43 1077.62 1062.88 1026.63 1046C994.153 1035.25 961.407 1025.27 928.527 1015.83C882.597 1002.65 836.534 989.91 790.326 977.744C756.654 968.879 722.714 961.002 688.785 953.151C665.354 947.729 641.798 942.803 618.191 938.206C593.766 933.45 569.218 929.323 544.712 924.991C529.385 922.281 514.071 919.472 498.687 917.123C481.505 914.499 464.253 912.328 447.027 909.99C429.791 907.65 412.575 905.13 395.302 903.095C381.081 901.419 366.796 900.269 352.528 899.011C332.839 897.276 313.15 895.529 293.443 894.032C277.64 892.832 261.817 891.857 245.99 891.037C229.789 890.196 213.577 889.493 197.361 889.044C178.594 888.523 159.816 888.395 141.045 887.983C136.431 887.882 131.823 887.011 127.218 887.056C106.276 887.262 85.3322 887.543 64.3955 888.052C53.3751 888.32 42.3674 889.11 31.4817 889.306C39.7925 885.27 47.934 881.497 56.1665 877.934C82.9934 866.322 109.644 854.267 136.744 843.331C193.578 820.397 251.005 799.036 309.513 780.69C330.26 774.185 350.837 767.052 371.801 761.347C418.645 748.598 465.613 736.289 512.673 724.361C535.448 718.589 558.478 713.76 581.511 709.085C608.414 703.626 635.433 698.725 662.429 693.732C677.22 690.997 692.045 688.424 706.897 686.047C723.543 683.382 740.226 680.941 756.915 678.553C770.658 676.587 784.425 674.777 798.196 673.017C810.332 671.465 822.488 670.071 834.636 668.62C844.812 667.404 854.979 666.086 865.172 665.033C876.695 663.843 888.246 662.94 899.778 661.835C912.618 660.603 925.438 659.144 938.289 658.047C948.852 657.145 959.457 656.743 970.025 655.885C974.054 655.557 978.03 654.576 982.03 653.893C982.03 653.893 982.459 653.966 982.676 653.953Z" fill="#4BB133"/>
<path d="M981.846 653.597C978.03 654.576 974.054 655.557 970.025 655.885C959.457 656.743 948.852 657.145 938.289 658.047C925.438 659.144 912.618 660.603 899.778 661.835C888.246 662.94 876.695 663.843 865.172 665.033C854.979 666.086 844.812 667.404 834.636 668.62C822.488 670.071 810.332 671.465 798.196 673.017C784.425 674.777 770.658 676.587 756.915 678.553C740.226 680.941 723.543 683.382 706.897 686.047C692.045 688.424 677.22 690.997 662.429 693.732C635.433 698.725 608.414 703.626 581.51 709.085C558.478 713.76 535.448 718.589 512.673 724.361C465.613 736.289 418.645 748.598 371.801 761.347C350.837 767.052 330.26 774.185 309.513 780.69C251.005 799.036 193.578 820.397 136.744 843.331C109.644 854.267 82.9933 866.322 56.1665 877.934C47.934 881.497 39.7925 885.27 31.2372 888.983C28.5697 880.666 26.2743 872.314 23.9872 863.214C23.6986 861.663 23.4016 860.86 23.1046 860.058C23.1046 860.058 22.9776 859.634 22.9878 859.064C22.6967 857.68 22.3954 856.866 22.0941 856.052C22.0941 856.052 21.9695 855.635 21.9836 855.028C21.6341 853.28 21.2705 852.14 20.9069 850.999C20.9069 850.999 20.9791 851.022 20.9922 850.616C20.9609 848.883 21.052 847.534 20.8521 846.229C16.9032 820.462 12.3598 794.77 9.13479 768.914C6.84615 750.565 5.75919 732.012 5.1914 713.518C4.69797 697.446 5.61562 681.326 6.05699 665.232C6.20653 659.779 6.75072 654.334 7.21207 648.894C8.09102 638.53 9.04011 628.171 9.96008 617.81C9.96008 617.81 9.98822 617.354 10.3241 616.863C10.7624 614.53 10.8649 612.687 10.9675 610.844C12.9838 597.563 14.478 584.177 17.1195 571.022C23.6918 538.289 32.5202 506.117 43.0221 474.432C47.7125 460.281 53.1821 446.389 58.2184 432.351C59.447 428.926 61.4852 427.611 65.2434 427.85C74.3075 428.428 83.4011 428.525 92.4767 428.949C95.4085 429.086 98.3211 429.636 101.973 430.34C121.657 431.791 140.614 432.847 159.564 434.028C168.95 434.612 178.323 435.408 187.699 436.14C199.53 437.062 211.359 438.017 223.19 438.958C223.19 438.958 223.641 438.988 224.139 439.325C236.147 440.761 247.659 441.862 259.171 442.962C259.597 442.975 260.024 442.987 261.038 443.331C263.471 443.761 265.317 443.861 267.162 443.961C267.592 443.975 268.022 443.989 269.042 444.333C271.471 444.764 273.31 444.865 275.15 444.966C284.612 446.044 294.098 446.949 303.53 448.246C313.589 449.63 323.591 451.424 333.629 452.963C343.206 454.432 352.829 455.621 362.375 457.258C378.536 460.029 394.672 462.957 410.784 465.999C429.834 469.597 448.923 473.044 467.86 477.177C493.643 482.804 519.391 488.649 544.982 495.087C569.964 501.373 594.883 508.012 619.553 515.414C654.184 525.806 688.716 536.58 722.994 548.073C750.26 557.214 777.22 567.324 804.067 577.65C833.078 588.809 861.936 600.396 890.606 612.405C912.655 621.642 934.319 631.799 956.132 641.594C964.673 645.429 973.154 649.394 981.846 653.597Z" fill="#378930"/>
<path d="M47.171 939.971C46.7798 939.281 46.3886 938.59 45.4885 937C50.3297 937 54.5394 936.872 58.7373 937.04C62.1646 937.177 65.5729 937.887 68.998 937.963C87.4201 938.374 105.849 938.505 124.267 939.052C137.28 939.439 150.284 940.247 163.282 941.024C178.406 941.928 193.525 942.933 208.637 944.027C220.933 944.917 233.229 945.85 245.499 947.041C260.987 948.544 276.443 950.381 291.923 951.977C305.612 953.389 319.349 954.396 333.004 956.072C352.599 958.478 372.14 961.324 391.703 963.992C411.26 966.659 430.858 969.057 450.359 972.087C471.72 975.407 493.005 979.223 514.293 982.992C536.187 986.868 558.059 990.871 579.913 994.963C604.503 999.566 629.11 1004.1 653.619 1009.1C672.669 1012.99 691.592 1017.5 710.553 1021.82C738.361 1028.16 766.196 1034.39 793.94 1040.99C830.341 1049.66 866.699 1058.52 903.01 1067.55C929.544 1074.15 955.982 1081.14 982.443 1088.03C991.191 1090.31 999.88 1092.81 1010.12 1095.62C1005.2 1096.98 1001.67 1098.04 998.095 1098.92C976.6 1104.24 954.893 1108.83 933.639 1114.98C896.212 1125.81 858.883 1137.05 821.856 1149.17C797.943 1157 774.535 1166.42 751.096 1175.62C726.721 1185.2 702.482 1195.14 678.374 1205.36C662.266 1212.2 646.411 1219.64 630.588 1227.12C612.694 1235.58 594.979 1244.41 577.154 1253.02C570.742 1256.11 564.237 1259.01 557.199 1261.77C550.671 1258.99 544.675 1256.55 538.776 1253.88C513.631 1242.53 488.503 1231.15 463.406 1219.69C460.459 1218.35 457.735 1216.52 455.05 1214.61C500.849 1163.91 546.507 1113.52 592.165 1063.13C591.836 1062.82 591.507 1062.5 591.178 1062.18C584.293 1067.42 577.495 1072.77 570.507 1077.86C537.776 1101.72 504.057 1123.95 466.904 1140.5C451.45 1147.38 435.49 1152.87 418.668 1154.8C405.098 1156.36 391.455 1154.3 378.472 1150.54C361.717 1145.68 345.081 1140.08 328.961 1133.43C294.308 1119.13 261.487 1101.12 229.299 1081.96C227.247 1080.74 225.04 1079.78 222.906 1078.69C222.77 1079.01 222.634 1079.33 222.498 1079.65C223.112 1080.41 223.725 1081.17 223.95 1081.96C221.789 1081.17 219.819 1080.63 218.275 1079.51C202.732 1068.21 187.005 1057.15 171.827 1045.38C150.379 1028.74 128.887 1012.11 108.279 994.46C89.2615 978.176 71.4084 960.534 52.9664 943.574C51.3216 942.061 49.1161 941.158 47.171 939.971ZM451.026 1112.53C466.549 1096.56 471.411 1077.57 465.845 1056.26C459.634 1032.48 436.596 1010.66 405.73 1016.75C371.713 1023.45 352.796 1056.19 363.566 1089.17C370.641 1110.85 385.744 1124.42 408.23 1127.68C424.204 1129.99 438.611 1124.24 451.026 1112.53Z" fill="#28C0E2"/>
<path d="M693.02 1787.07C685.701 1808.96 675.345 1828.95 661.469 1846.8C643.873 1869.44 622.718 1888.11 597.069 1901.61C579.548 1910.83 561.074 1916.91 541.852 1920.84C534.364 1922.37 526.566 1922.59 518.889 1922.93C511.233 1923.26 503.55 1923.1 495.882 1922.98C477.712 1922.7 460.176 1918.63 443.258 1912.5C426.112 1906.29 410.291 1897.4 395.603 1886.36C380.108 1874.7 366.722 1861.1 355.285 1845.6C340.671 1825.79 329.478 1804.1 322.907 1780.34C319.522 1768.1 316.965 1755.54 315.185 1742.97C313.623 1731.93 312.985 1720.65 313.158 1709.5C313.425 1692.24 316.26 1675.26 320.974 1658.61C327.286 1636.31 336.8 1615.56 349.914 1596.42C367.265 1571.1 389.018 1550.56 415.534 1535.06C434.036 1524.24 453.99 1516.99 474.923 1513.3C488.751 1510.86 503.082 1509.76 517.107 1510.27C544.473 1511.26 570.912 1517.6 595.064 1530.83C607.028 1537.38 618.393 1545.33 629.087 1553.83C653.234 1573.03 670.743 1597.66 683.678 1625.45C691.893 1643.1 697.528 1661.66 701.121 1680.89C704.457 1698.74 704.715 1716.72 703.776 1734.63C702.845 1752.38 699.271 1769.86 693.02 1787.07ZM583.044 1667.39C577.436 1651.22 568.995 1637.07 555.577 1625.94C536.474 1610.08 514.438 1606.99 491.248 1611.55C468.101 1616.09 451.992 1631.03 441.338 1651.45C429.487 1674.18 424.891 1698.67 427.073 1724.25C427.956 1734.6 428.807 1745.08 431.182 1755.14C435.959 1775.38 444.871 1793.53 460.999 1807.56C481.451 1825.34 504.928 1828.69 530.281 1822.17C548.508 1817.48 561.893 1805.59 571.844 1790.22C584.503 1770.66 589.428 1748.43 590.888 1725.51C592.132 1705.97 589.592 1686.74 583.044 1667.39Z" fill="white"/>
<path d="M732.734 1857.69C745.358 1831.78 757.752 1806.18 770.32 1780.21C788.303 1791.67 807.251 1801.18 827.032 1808.99C843.211 1815.38 859.669 1820.97 877.045 1822.91C887.649 1824.09 898.359 1824.86 909.017 1824.81C915.831 1824.78 922.781 1823.68 928.578 1819.01C936.254 1812.83 936.359 1803.96 930.964 1796.53C925.294 1788.73 916.748 1784.99 908.111 1782.1C884.259 1774.12 860.166 1766.86 836.276 1758.99C814.821 1751.91 794.352 1742.64 776.389 1728.71C757.738 1714.25 745.482 1695.45 742.203 1671.9C740.393 1658.91 739.292 1645.51 740.293 1632.48C742.241 1607.12 750.774 1583.78 766.874 1563.63C782.908 1543.58 803.232 1529.68 827.312 1520.82C840.569 1515.93 853.95 1512.15 868.046 1510.98C875.219 1510.39 882.377 1509.15 889.548 1509.1C912.477 1508.92 934.927 1512.6 957.031 1518.52C978.771 1524.34 999.696 1532.37 1020.02 1542C1028.28 1545.91 1036.55 1549.8 1045.11 1553.84C1028.78 1584.42 1012.7 1614.54 996.396 1645.09C988.258 1640.88 980.294 1636.07 971.802 1632.51C955.567 1625.71 939.255 1618.95 922.552 1613.46C908.307 1608.78 893.22 1608.01 878.256 1609.13C871.712 1609.62 865.448 1611.69 860.149 1616.24C853.079 1622.31 853.556 1634.26 859.776 1641.28C866.852 1649.26 876.531 1652.72 886.168 1655.9C909.141 1663.49 932.355 1670.35 955.277 1678.08C974.936 1684.72 994.027 1692.82 1011.01 1705.03C1032.23 1720.3 1046.04 1740.38 1051.12 1766.39C1053.66 1779.42 1054.64 1792.5 1053.9 1805.63C1052.52 1829.88 1046.3 1852.84 1031.62 1872.59C1021.7 1885.94 1009.06 1896.43 994.26 1904.44C975.585 1914.54 955.68 1920.28 934.795 1922.94C926.679 1923.98 918.487 1924.67 910.311 1924.92C899.152 1925.25 887.851 1926.06 876.835 1924.77C857.552 1922.49 838.183 1919.85 819.327 1915.36C800.365 1910.84 781.711 1904.61 763.437 1897.76C749.397 1892.49 736.155 1885.1 722.262 1878.51C726.068 1870.89 729.285 1864.44 732.734 1857.69Z" fill="white"/>
<path d="M1332.96 1912C1318.56 1917.55 1304.18 1921.61 1289.15 1922.98C1276.74 1924.1 1264.3 1925.95 1251.9 1925.75C1237.88 1925.52 1223.88 1923.47 1209.9 1922C1182.01 1919.07 1155.05 1912 1129.03 1901.84C1112.48 1895.39 1096.6 1887.23 1080.45 1879.77C1079.45 1879.31 1078.71 1878.27 1077.74 1877.4C1093.65 1844.86 1109.47 1812.51 1125.23 1780.29C1144.09 1792.21 1163.73 1802.53 1184.72 1809.86C1199.08 1814.88 1213.72 1819.46 1228.59 1822.56C1243.8 1825.74 1259.45 1826.91 1274.92 1822.99C1281 1821.45 1286.91 1818.43 1288.57 1812.44C1290.34 1806.02 1289.46 1799.33 1283.64 1793.95C1274.17 1785.17 1262.34 1781.4 1250.67 1777.41C1237.47 1772.91 1224.05 1769.03 1210.61 1765.31C1192.15 1760.2 1174.32 1753.49 1157.22 1744.95C1142.6 1737.65 1128.92 1728.8 1118.03 1716.41C1107.08 1703.96 1099.6 1689.62 1097.06 1673.08C1095.72 1664.39 1093.81 1655.54 1094.28 1646.88C1094.98 1633.95 1096.57 1620.9 1099.55 1608.32C1104.28 1588.39 1114.26 1571.05 1128.41 1555.94C1148.14 1534.88 1172.32 1521.84 1199.98 1515.17C1211.28 1512.45 1223.04 1511.56 1234.61 1510.02C1255.36 1507.28 1275.58 1510.93 1295.83 1514.89C1320.4 1519.7 1343.7 1528.24 1366.53 1538.19C1377.7 1543.06 1388.64 1548.44 1399.93 1553.7C1383.59 1584.39 1367.48 1614.63 1351.11 1645.36C1347.28 1643.24 1343.42 1641.06 1339.52 1638.93C1315.42 1625.79 1290.22 1615.27 1263.17 1610.29C1250.51 1607.97 1237.3 1607.16 1224.58 1611.06C1209.49 1615.68 1206.95 1627.89 1212.15 1637.98C1215.9 1645.26 1222.98 1649.4 1230.6 1651.94C1255.97 1660.42 1281.46 1668.56 1306.85 1677C1328.11 1684.06 1348.7 1692.58 1366.88 1706C1387.68 1721.37 1401.73 1741.23 1405.88 1767.11C1407.61 1777.9 1408.9 1788.91 1408.8 1799.81C1408.62 1819.37 1404.98 1838.49 1396.24 1856.18C1385.88 1877.16 1370.21 1893.24 1349.4 1904.15C1344.14 1906.91 1338.71 1909.37 1332.96 1912Z" fill="white"/>
<path d="M609.914 1288.91C632.59 1277.46 655.006 1265.45 678.016 1254.72C700.273 1244.34 722.905 1234.66 745.809 1225.8C769.022 1216.82 792.56 1208.54 816.339 1201.2C842.607 1193.09 869.132 1185.64 895.877 1179.3C918.914 1173.84 942.381 1170.13 965.729 1166.05C977.917 1163.92 990.216 1162.21 1002.54 1161.1C1021.69 1159.38 1040.9 1158.18 1060.1 1157.06C1071.33 1156.4 1082.63 1155.67 1093.84 1156.15C1110.73 1156.88 1127.58 1158.65 1144.44 1159.97C1164.93 1161.58 1184.96 1165.78 1204.79 1171.03C1211.91 1172.92 1218.94 1175.2 1226.58 1177.47C1221.83 1183.09 1217.8 1188.46 1213.16 1193.23C1201.67 1205.06 1190.4 1217.18 1178.12 1228.15C1163.4 1241.28 1148.27 1254.09 1132.33 1265.68C1113.35 1279.47 1093.93 1292.88 1073.58 1304.48C1051.2 1317.23 1027.94 1328.62 1004.35 1338.96C981.271 1349.07 957.447 1357.58 933.643 1365.91C917.964 1371.4 901.74 1375.33 885.122 1379.64C883.737 1378.95 883.027 1378.45 882.239 1378.24C855.173 1371.15 827.976 1364.51 801.06 1356.89C770.937 1348.36 740.764 1339.81 711.173 1329.64C681.236 1319.36 651.958 1307.14 622.463 1295.59C618.08 1293.87 614.087 1291.16 609.914 1288.91Z" fill="#28C0E2"/>
<path d="M131 1667.97C131 1671.45 131 1674.43 131 1677.8C176.601 1677.8 222.006 1677.8 267.704 1677.8C267.704 1708.27 267.704 1738.34 267.704 1768.81C222.392 1768.81 176.988 1768.81 131.187 1768.81C131.187 1819.61 131.187 1870.01 131.187 1920.71C94.0548 1920.71 57.3177 1920.71 20.29 1920.71C20.29 1785.06 20.29 1649.32 20.29 1513.3C112.936 1513.3 205.67 1513.3 298.702 1513.3C298.702 1545.27 298.702 1577.34 298.702 1609.81C243.064 1609.81 187.327 1609.81 131 1609.81C131 1629.29 131 1648.38 131 1667.97Z" fill="white"/>
<path d="M454.908 1214.91C457.735 1216.52 460.459 1218.35 463.405 1219.69C488.503 1231.15 513.631 1242.53 538.776 1253.88C544.675 1256.55 550.671 1258.99 556.832 1261.83C553.055 1264.56 549.176 1267.19 545.066 1269.4C519.273 1283.25 493.464 1297.07 467.588 1310.76C451.055 1319.51 434.468 1328.17 417.716 1336.49C415.386 1337.64 411.501 1337.56 409.122 1336.42C392.217 1328.29 375.111 1320.46 358.844 1311.17C333.34 1296.61 307.823 1281.91 283.494 1265.51C264.62 1252.79 247.183 1237.83 229.801 1223.05C216.576 1211.8 203.827 1199.84 191.96 1187.18C172.719 1166.64 154.252 1145.33 138.988 1121.57C125.393 1100.41 111.285 1079.46 99.4279 1057.34C86.0161 1032.31 74.5973 1006.2 62.8373 980.314C56.9662 967.393 52.266 953.94 47.1035 940.35C49.116 941.158 51.3214 942.061 52.9663 943.574C71.4083 960.534 89.2613 978.176 108.279 994.46C128.887 1012.11 150.379 1028.74 171.827 1045.38C187.005 1057.15 202.732 1068.21 218.275 1079.51C219.819 1080.63 221.788 1081.17 224.13 1082.01C224.927 1082.2 225.04 1082.41 225.144 1082.99C225.594 1083.51 225.939 1083.74 226.573 1084.11C287.311 1144.05 347.761 1203.85 408.676 1264.11C412.654 1260.21 416.952 1256.32 420.88 1252.08C432.302 1239.76 443.576 1227.31 454.908 1214.91Z" fill="#47B3CE"/>
<path d="M609.55 1288.95C614.087 1291.16 618.08 1293.87 622.463 1295.59C651.958 1307.14 681.236 1319.35 711.173 1329.64C740.764 1339.81 770.937 1348.36 801.06 1356.89C827.976 1364.51 855.173 1371.15 882.239 1378.24C883.027 1378.45 883.737 1378.95 884.724 1379.58C881.63 1380.56 878.295 1381.29 874.206 1382.02C872.64 1382.29 871.828 1382.57 871.016 1382.84C871.016 1382.84 870.594 1382.99 869.926 1383C867.928 1383.05 866.56 1382.9 865.274 1383.16C835.432 1389.16 805.375 1393.68 775.02 1396.01C755.214 1397.53 735.392 1399.44 715.554 1399.77C695.833 1400.1 676.057 1399.1 656.354 1397.9C638.873 1396.84 621.328 1395.54 604.045 1392.84C579.734 1389.05 555.622 1383.97 531.462 1379.25C522.225 1377.45 513.087 1375.13 503.904 1373.05C503.904 1373.05 503.985 1373.03 503.797 1372.78C502.702 1372.37 501.796 1372.21 500.89 1372.06C500.89 1372.06 500.982 1372.04 500.792 1371.79C499.685 1371.37 498.77 1371.2 497.855 1371.03C494.976 1370.12 492.097 1369.21 488.277 1368C526.968 1337.95 566.58 1311.19 609.55 1288.95Z" fill="#47B3CE"/>
<path d="M400.502 1982.18C412.531 1987.8 418.683 1997.37 420.998 2010.31C427.613 1999.28 435.022 1989.89 446.169 1984.44C456.452 1979.42 467.478 1978.34 478.486 1981.3C491.101 1984.69 497.218 1994.58 499.803 2006.4C501.743 2015.26 502.687 2024.48 502.862 2033.56C503.286 2055.53 503 2077.5 503 2099.74C498.001 2099.74 493.262 2099.74 488 2099.74C488 2098.13 488 2096.52 488 2094.92C488 2074.08 488.354 2053.24 487.818 2032.42C487.617 2024.6 485.738 2016.75 483.932 2009.07C481.419 1998.39 468.339 1991.32 456.332 1993.69C437.457 1997.41 428.615 2010.36 422.264 2026.43C421.745 2027.74 422.009 2029.39 422.009 2030.88C421.996 2053.7 422 2076.52 422 2099.67C417.132 2099.67 412.392 2099.67 407 2099.67C407 2098.28 407 2096.69 407 2095.1C407 2071.6 407.17 2048.1 406.908 2024.6C406.816 2016.31 405.062 2007.98 399.721 2001.44C392.513 1992.61 382.564 1991.5 372.18 1994.4C355.974 1998.93 347.609 2011.22 342.095 2026.03C341.657 2027.2 342.002 2028.67 342.002 2030C341.999 2053.15 342 2076.29 342 2099.72C337.042 2099.72 332.302 2099.72 327.279 2099.72C327.279 2060.7 327.279 2021.62 327.279 1982.28C331.639 1982.28 336.046 1982.28 340.807 1982.28C340.807 1990.65 340.807 1999.06 340.807 2008.85C347.269 1997.38 354.967 1988.87 365.952 1984.06C377.017 1979.22 388.484 1978.43 400.502 1982.18Z" fill="white"/>
<path d="M580 2081C580 2087.48 580 2093.45 580 2099.71C575.051 2099.71 570.313 2099.71 565.285 2099.71C565.285 2060.72 565.285 2021.66 565.285 1982.3C569.256 1982.3 573.329 1982.3 577.761 1982.3C577.761 1990.59 577.761 1999.01 577.761 2008.95C581.021 2004.76 583.453 2001.7 585.817 1998.58C594.804 1986.75 606.842 1980.82 621.557 1979.99C632.277 1979.4 641.96 1981.75 649.461 1989.99C654.327 1995.34 657.721 2001.47 658.377 2010.13C660.86 2006.84 662.831 2004.46 664.542 2001.91C672.078 1990.68 682.145 1983.24 695.635 1980.8C716.853 1976.97 732.223 1984.34 737.874 2006.78C739.37 2012.72 739.848 2019.04 739.908 2025.2C740.137 2048.36 740 2071.51 740 2094.67C740 2096.3 740 2097.93 740 2099.78C735.256 2099.78 730.852 2099.78 726 2099.78C726 2097.21 726 2094.77 726 2092.32C726 2072.16 726.33 2051.99 725.851 2031.85C725.634 2022.72 724.354 2013.67 720.197 2005.03C716.224 1996.78 702.829 1991.8 694.556 1993.55C676.315 1997.4 666.244 2008.97 660.79 2025.75C660.251 2027.41 660.036 2029.24 660.032 2030.99C659.984 2053.8 660 2076.6 660 2099.7C655.069 2099.7 650.331 2099.7 645 2099.7C645 2098.21 645 2096.61 645 2095.02C645 2071.86 645.251 2048.7 644.863 2025.55C644.729 2017.55 643.167 2009.68 638.362 2002.62C632.853 1994.52 624.812 1992.15 616.302 1993.23C597.439 1995.62 586.597 2008 580.422 2025.12C579.938 2026.47 580.019 2028.05 580.016 2029.52C579.991 2046.51 580 2063.51 580 2081Z" fill="white"/>
<path d="M249.706 2088.79C228.166 2107.37 192.76 2105.73 173.284 2086.03C158.418 2071 152.831 2053.08 155.215 2032.96C158.271 2007.16 174.415 1987.34 199.779 1981.34C222.475 1975.98 244.034 1983.21 259.202 2003.58C266.668 2013.6 270.222 2024.74 271.158 2037.22C272.297 2052.38 268.067 2065.78 259.874 2078.08C257.25 2082.02 253.309 2085.08 249.706 2088.79ZM247.561 2069.95C248.549 2068.3 249.65 2066.7 250.509 2064.99C260.814 2044.4 257.485 2018 238.81 2002.38C222.604 1988.82 201.264 1989.69 185.765 2003.84C167.562 2020.46 164.572 2051.39 179.78 2071.63C197.869 2095.71 230.675 2094.07 247.561 2069.95Z" fill="white"/>
<path d="M981.03 2007.02C983.18 2004.98 985.314 2002.54 987.426 2000.08C999.483 1986.04 1014.92 1979.51 1033.25 1980.05C1049.16 1980.52 1057.88 1987.42 1061.84 2000.87C1064.14 2008.7 1065.63 2017.03 1065.82 2025.18C1066.34 2048.32 1066 2071.49 1066 2094.65C1066 2096.28 1066 2097.91 1066 2099.77C1061.27 2099.77 1056.87 2099.77 1052 2099.77C1052 2098.06 1052 2096.45 1052 2094.84C1052 2074.51 1052.38 2054.18 1051.82 2033.87C1051.58 2025.38 1049.96 2016.78 1047.85 2008.52C1044.7 1996.21 1032.15 1991.59 1020.61 1993.64C1004.57 1996.5 993.23 2005.48 985.487 2019.24C983.44 2022.88 982.21 2027.48 982.151 2031.66C981.833 2054.27 982 2076.9 982 2099.76C976.952 2099.76 972.214 2099.76 967.237 2099.76C967.237 2060.62 967.237 2021.56 967.237 1982.25C971.695 1982.25 976.1 1982.25 981.003 1982.25C981.003 1990.4 981.003 1998.5 981.03 2007.02Z" fill="white"/>
<path d="M880.274 2069.28C885.345 2063.29 887.311 2056.92 887.149 2049.25C886.713 2028.6 887 2007.94 887 1987.28C887 1985.66 887 1984.03 887 1982.21C892.111 1982.21 896.848 1982.21 902 1982.21C902 1984.32 902 1986.28 902 1988.23C902 2018.05 902.056 2047.86 901.942 2077.68C901.925 2082.36 902.602 2086.18 907.894 2087.21C907.894 2091.48 907.894 2095.45 907.894 2099.62C904.235 2099.62 900.493 2100.33 897.158 2099.46C891.403 2097.97 889.156 2093.87 889.015 2086.68C888.934 2082.62 889 2078.55 889 2073.46C879.624 2087.79 867.839 2097.23 851.911 2100.54C837.668 2103.51 823.906 2103.19 813.074 2091.49C806.964 2084.89 803.337 2076.63 803.185 2067.88C802.691 2039.5 803 2011.1 803 1982.35C806.48 1982.35 810.885 1982.35 815.784 1982.35C815.845 1983.48 815.989 1984.9 815.99 1986.32C816.005 2006.64 815.733 2026.97 816.138 2047.29C816.29 2054.86 817.086 2062.67 819.209 2069.9C823.849 2085.7 834.201 2090.67 849.249 2088.8C862.114 2087.21 872.616 2080.53 880.274 2069.28Z" fill="white"/>
<path d="M1229.21 2100C1217.22 2096.44 1212.08 2088.61 1212.03 2076.85C1211.93 2050.69 1212 2024.52 1212 1998.36C1212 1996.73 1212 1995.09 1212 1993.07C1206.62 1993.07 1201.53 1993.07 1196.23 1993.07C1196.23 1989.28 1196.23 1985.87 1196.23 1982.06C1201.39 1982.06 1206.47 1982.06 1211.94 1982.06C1211.94 1968.6 1211.94 1955.53 1211.94 1942.23C1217.07 1942.23 1221.81 1942.23 1226.95 1942.23C1226.95 1955.41 1226.95 1968.48 1226.95 1981.95C1236.08 1981.95 1244.82 1981.95 1253.78 1981.95C1253.78 1985.75 1253.78 1989.15 1253.78 1993C1246.21 1993 1238.76 1993.12 1231.31 1992.94C1228.08 1992.87 1226.93 1993.93 1226.94 1997.24C1227.05 2022.73 1226.94 2048.23 1227.03 2073.72C1227.06 2082.2 1233.72 2087.82 1240.62 2086.95C1246.8 2086.17 1252.93 2084.97 1259.92 2083.82C1260.7 2086.02 1261.94 2089.22 1262.92 2092.51C1263.12 2093.19 1262.61 2094.67 1262.06 2094.9C1251.68 2099.2 1241.18 2103 1229.21 2100Z" fill="white"/>
<path d="M1143 2094.89C1143 2096.82 1143 2098.26 1143 2099.85C1138.23 2099.85 1133.94 2099.85 1129.32 2099.85C1129.32 2060.79 1129.32 2021.72 1129.32 1982.32C1133.54 1982.32 1137.95 1982.32 1143 1982.32C1143 2019.56 1143 2056.98 1143 2094.89Z" fill="white"/>
<path d="M504.091 1373.39C513.087 1375.13 522.224 1377.45 531.462 1379.25C555.622 1383.97 579.734 1389.05 604.045 1392.84C621.328 1395.54 638.873 1396.84 656.354 1397.9C676.057 1399.1 695.833 1400.1 715.553 1399.77C735.392 1399.44 755.214 1397.53 775.02 1396.01C805.375 1393.68 835.432 1389.16 865.274 1383.16C866.56 1382.9 867.928 1383.05 869.702 1383.02C861.205 1385.02 852.308 1387.25 843.311 1388.95C829.906 1391.47 816.469 1393.89 802.973 1395.86C792.926 1397.32 782.781 1398.24 772.649 1398.94C755.225 1400.15 737.783 1401.14 720.336 1401.96C708.265 1402.53 696.167 1403.07 684.092 1402.89C671.239 1402.71 658.329 1402.29 645.568 1400.86C623.375 1398.38 601.263 1395.15 579.145 1392.03C553.588 1388.43 528.919 1381.11 504.091 1373.39Z" fill="#29C0E1"/>
<path d="M9.62903 618.078C9.04023 628.171 8.09113 638.53 7.21219 648.894C6.75084 654.334 6.20664 659.779 6.05711 665.232C5.61574 681.326 4.69809 697.446 5.19152 713.518C5.75931 732.012 6.84627 750.565 9.13491 768.914C12.3599 794.77 16.9033 820.462 20.8522 846.229C21.0521 847.534 20.961 848.883 20.9767 850.651C18.6322 840.642 15.7937 830.276 14.1185 819.725C11.3436 802.248 9.33464 784.65 6.97216 767.106C2.88645 736.767 3.58619 706.241 4.22553 675.793C4.58651 658.602 7.33126 641.462 8.97719 624.297C9.16665 622.321 9.19488 620.33 9.62903 618.078Z" fill="#48AE32"/>
<path d="M1136 1935C1138.46 1935 1140.44 1935 1142.71 1935C1142.71 1942.27 1142.71 1949.35 1142.71 1956.71C1138.39 1956.71 1133.98 1956.71 1129.29 1956.71C1129.29 1949.72 1129.29 1942.64 1129.29 1935C1131.32 1935 1133.41 1935 1136 1935Z" fill="white"/>
<path d="M222.916 438.624C211.36 438.017 199.531 437.062 187.699 436.139C178.323 435.408 168.95 434.612 159.564 434.028C140.615 432.847 121.657 431.791 102.4 430.417C120.007 431.096 137.918 432.003 155.825 433.002C166.342 433.588 176.862 434.181 187.36 435.022C199.133 435.964 210.883 437.188 222.916 438.624Z" fill="#47AB32"/>
<path d="M258.908 442.628C247.659 441.862 236.148 440.761 224.355 439.391C233.301 440.036 242.526 440.968 251.756 441.855C254.045 442.075 256.348 442.152 258.908 442.628Z" fill="#44AA31"/>
<path d="M266.922 443.639C265.317 443.861 263.471 443.761 261.352 443.395C262.946 443.192 264.813 443.254 266.922 443.639Z" fill="#44AA31"/>
<path d="M10.6481 611.086C10.8649 612.687 10.7624 614.53 10.3935 616.645C10.1943 615.055 10.2616 613.192 10.6481 611.086Z" fill="#48AE32"/>
<path d="M274.911 444.644C273.311 444.865 271.471 444.764 269.358 444.4C270.946 444.198 272.809 444.26 274.911 444.644Z" fill="#44AA31"/>
<path d="M20.9414 851.378C21.2706 852.14 21.6342 853.28 21.9772 854.811C21.6297 854.052 21.3027 852.905 20.9414 851.378Z" fill="#48AE32"/>
<path d="M22.0544 856.401C22.3955 856.866 22.6968 857.68 22.9782 858.844C22.6438 858.379 22.3292 857.565 22.0544 856.401Z" fill="#48AE32"/>
<path d="M23.0635 860.404C23.4017 860.86 23.6987 861.663 23.9814 862.809C23.6521 862.352 23.3372 861.551 23.0635 860.404Z" fill="#48AE32"/>
<path d="M871.368 1382.91C871.828 1382.57 872.64 1382.29 873.791 1382.03C873.327 1382.35 872.523 1382.66 871.368 1382.91Z" fill="#29C0E1"/>
<path d="M501.048 1372.38C501.796 1372.21 502.702 1372.37 503.802 1372.82C503.066 1372.97 502.136 1372.84 501.048 1372.38Z" fill="#29C0E1"/>
<path d="M498.022 1371.34C498.77 1371.2 499.685 1371.37 500.795 1371.84C500.056 1371.98 499.123 1371.82 498.022 1371.34Z" fill="#29C0E1"/>
<path d="M1000.95 233.525C992.794 247.02 981.469 254.665 965.618 254.114C950.144 253.576 939.463 245.681 932.965 231.873C925.786 216.616 931.671 199.093 945.394 188.453C950.591 185.764 955.258 183.455 959.368 181.423C953.844 180.965 947.62 180.815 941.533 179.825C936.94 179.078 932.522 177.257 928.026 175.913C928.026 175.913 928.01 175.983 928.068 175.668C927.751 175.209 927.376 175.065 927.002 174.921C927.002 174.921 927.005 174.991 926.881 174.712C926.174 174.261 925.59 174.088 925.007 173.914C925.007 173.914 925.006 173.99 924.998 173.707C924.656 173.26 924.321 173.096 923.987 172.932C923.987 172.932 923.998 173.004 923.871 172.722C923.167 172.266 922.589 172.092 922.011 171.918C922.011 171.918 922.011 171.989 922.062 171.671C921.749 171.211 921.385 171.068 921.022 170.925C921.022 170.925 921.012 170.995 920.949 170.596C920.263 170.096 919.639 169.995 919.016 169.893C919.016 169.893 919.138 169.962 919.195 169.921C917.893 167.371 916.286 164.962 915.225 162.333C912.522 155.637 915.111 149.991 919.635 145.237C925.305 139.28 932.568 135.588 940.67 135.157C949.11 134.709 957.718 135.079 966.083 136.276C973.456 137.331 979.472 141.715 984.595 147.323C989.531 152.725 989.198 164.552 983.896 169.77C977.968 175.603 970.835 178.662 962.821 180.672C976.71 180.556 988.894 184.233 997.454 195.852C1006.06 207.537 1005.92 220.136 1000.95 233.525Z" fill="#FEFEFF"/>
<path d="M1056.16 291.644C1030.81 308.323 1007.89 288.932 1001.97 269.722C998.527 258.542 999.805 248.165 1005.12 237.659C1011.08 228.814 1018.51 222.128 1029.21 221.718C1035.2 221.489 1041.93 222.282 1047.19 224.896C1061.34 231.926 1068.53 243.89 1069.11 260.004C1069.56 272.58 1066.09 283.153 1056.16 291.644Z" fill="#FEFEFF"/>
<path d="M1083.42 260.682C1067.15 246.07 1059.05 228.52 1063.01 206.842C1065.56 192.931 1077.54 188.471 1088.96 196.761C1097.83 203.201 1103.57 212.022 1107.03 222.407C1109.9 231.049 1111.7 239.569 1110.2 248.939C1107.77 264.052 1096.89 269.292 1083.42 260.682Z" fill="#FEFEFF"/>
<path d="M988.244 142.831C981.785 139.334 975.653 136.032 969.629 132.541C968.079 131.643 966.742 130.268 965.531 128.912C962.2 125.181 958.158 121.278 960.688 115.798C963.053 110.675 968.228 110.186 973.408 109.936C988.888 109.189 1002.93 113.564 1015.89 121.631C1019.65 123.972 1023.11 126.976 1026.22 130.149C1029.32 133.309 1032.22 137.959 1029.48 141.738C1027.22 144.837 1022.4 147.175 1018.43 147.705C1008.19 149.074 998.164 147.001 988.244 142.831Z" fill="#FDFEFE"/>
<path d="M1090.06 171.994C1092.12 176.168 1094.56 179.867 1095.73 183.931C1097.25 189.181 1092.16 193.487 1087.06 191.518C1065.02 182.996 1048.17 168.309 1036.68 147.728C1035.29 145.227 1035.3 140.728 1036.64 138.198C1038.54 134.603 1042.78 135.723 1046.11 136.997C1064.32 143.965 1078.56 155.99 1090.06 171.994Z" fill="#FCFDFE"/>
<path d="M899.944 158.568C892.873 162.278 885.738 164.648 877.896 164.057C872.36 163.639 866.703 163.065 864.158 157.172C862.585 153.529 866.097 149.434 873.219 145.665C873.944 145.281 874.733 145.019 875.702 144.46C882.592 142.311 889.367 140.364 896.191 143.053C899.316 144.285 903.262 145.895 904.651 148.498C906.799 152.526 903.54 155.842 899.944 158.568Z" fill="#FDFEFF"/>
<path d="M1120.51 298.812C1117.47 293.478 1113.59 288.53 1112.41 283.007C1111.06 276.601 1111.69 269.655 1112.29 263.019C1112.49 260.891 1114.94 258.153 1117.04 257.204C1120.12 255.811 1121.45 258.927 1122.83 261.254C1128.72 271.197 1127.17 282.085 1126.58 292.741C1126.43 295.462 1125.34 299.279 1120.51 298.812Z" fill="#FDFEFE"/>
<path d="M926.052 105.227C929.326 103.606 932.39 101.565 935.624 101.247C944.527 100.371 953.499 100.538 962.028 103.786C963.592 104.382 964.691 106.201 966.005 107.456C964.674 108.532 963.484 110.251 961.988 110.581C950.893 113.027 939.821 113.151 929.07 108.903C927.785 108.395 926.959 106.725 926.052 105.227Z" fill="#FCFDFE"/>
<path d="M1130.45 330.035C1128.29 333.912 1126.3 333.623 1124.71 330.2C1121.82 323.961 1122.16 317.49 1124.16 311.128C1124.55 309.884 1126.4 309.099 1127.58 308.102C1128.39 309.25 1129.45 310.295 1129.96 311.563C1132.34 317.499 1132.31 323.576 1130.45 330.035Z" fill="#FBFCFD"/>
<path d="M920.161 108.307C912.06 111.638 904.249 111.761 896.502 108.553C895.29 108.051 894.413 106.74 893.382 105.803C894.447 104.92 895.502 103.291 896.58 103.276C903.328 103.183 910.098 103.239 916.824 103.737C918.648 103.872 921.885 104.45 920.161 108.307Z" fill="#FBFCFD"/>
<path d="M905.771 227.324C910.858 227.896 916.008 227.563 920.134 229.458C934.732 236.165 934.83 257.604 922.05 265.619C914.663 270.251 907.13 271.364 899.281 266.726C891.768 262.286 888.067 255.544 888.073 247.014C888.079 238.595 895.374 230.678 905.771 227.324Z" fill="#FDFEFF"/>
<path d="M1012.84 332.859C1013.18 329.623 1013.14 326.716 1013.95 324.077C1017.58 312.369 1028.62 306.084 1039.61 309.232C1048.54 311.792 1054.86 324.049 1052.66 334.558C1050.51 344.836 1043.36 352.571 1032.99 353.706C1026.03 354.466 1020.06 350.593 1016.51 344.502C1014.58 341.189 1014.03 337.068 1012.84 332.859Z" fill="#FDFEFF"/>
<path d="M1018.12 376.283C1022.57 371.738 1027.54 370.617 1031.17 373.071C1034.76 375.497 1036.44 381.691 1034.87 386.726C1033.61 390.761 1028.72 393.688 1024.11 393.162C1017.21 392.374 1014.21 384.381 1018.12 376.283Z" fill="#FDFEFF"/>
<path d="M870.998 255.522C876.787 259.268 878.591 263.886 876.439 268.721C874.446 273.197 868.94 275.955 864.476 274.712C859.446 273.311 856.267 268.471 856.943 263.244C857.709 257.329 863.105 254.215 870.998 255.522Z" fill="#FBFDFF"/>
<path d="M847.225 166.256C842.344 168.654 837.823 171.111 833.024 172.754C831.534 173.265 828.744 172.036 827.606 170.702C826.986 169.977 828.064 166.45 829.276 165.755C833.811 163.155 838.623 160.936 843.544 159.17C844.98 158.655 847.852 159.61 848.715 160.839C849.388 161.799 847.968 164.226 847.225 166.256Z" fill="#FAFCFF"/>
<path d="M928.148 176.233C932.522 177.257 936.94 179.078 941.533 179.825C947.621 180.815 953.844 180.965 959.368 181.423C955.258 183.455 950.591 185.764 945.594 188.189C939.598 184.389 933.934 180.471 928.148 176.233Z" fill="#407FB1"/>
<path d="M925.155 174.193C925.59 174.088 926.174 174.261 926.916 174.705C926.484 174.808 925.893 174.64 925.155 174.193Z" fill="#407FB1"/>
<path d="M919.154 170.181C919.639 169.995 920.262 170.096 920.978 170.575C920.477 170.792 919.885 170.631 919.154 170.181Z" fill="#397AAC"/>
<path d="M922.159 172.194C922.589 172.092 923.167 172.266 923.908 172.717C923.483 172.819 922.895 172.645 922.159 172.194Z" fill="#397AAC"/>
<path d="M921.098 171.183C921.385 171.068 921.749 171.211 922.097 171.665C921.779 171.797 921.477 171.619 921.098 171.183Z" fill="#397AAC"/>
<path d="M924.083 173.184C924.321 173.096 924.656 173.26 925.036 173.706C924.781 173.804 924.48 173.619 924.083 173.184Z" fill="#397AAC"/>
<path d="M927.085 175.178C927.376 175.065 927.751 175.209 928.103 175.66C927.776 175.791 927.472 175.613 927.085 175.178Z" fill="#407FB1"/>
<path d="M455.05 1214.61C443.576 1227.31 432.302 1239.76 420.88 1252.08C416.952 1256.32 412.654 1260.21 408.676 1264.11C347.761 1203.85 287.311 1144.05 226.425 1083.84C225.672 1083.18 225.356 1082.94 225.039 1082.69C225.04 1082.41 224.927 1082.2 224.519 1081.99C223.725 1081.17 223.112 1080.41 222.498 1079.65C222.634 1079.33 222.77 1079.01 222.906 1078.69C225.04 1079.78 227.247 1080.74 229.299 1081.96C261.487 1101.12 294.308 1119.13 328.961 1133.43C345.081 1140.08 361.717 1145.68 378.472 1150.54C391.455 1154.3 405.098 1156.36 418.668 1154.8C435.49 1152.87 451.45 1147.38 466.904 1140.5C504.057 1123.95 537.776 1101.72 570.507 1077.86C577.495 1072.77 584.292 1067.42 591.178 1062.18C591.507 1062.5 591.836 1062.82 592.165 1063.13C546.507 1113.52 500.849 1163.91 455.05 1214.61Z" fill="#FEFFFF"/>
<path d="M450.775 1112.78C438.611 1124.24 424.204 1129.99 408.23 1127.68C385.744 1124.42 370.641 1110.85 363.566 1089.17C352.796 1056.19 371.713 1023.45 405.73 1016.75C436.596 1010.66 459.634 1032.48 465.845 1056.26C471.411 1077.57 466.549 1096.56 450.775 1112.78Z" fill="#FEFFFF"/>
<path d="M583.296 1667.71C589.591 1686.74 592.132 1705.97 590.888 1725.51C589.428 1748.43 584.503 1770.66 571.844 1790.22C561.893 1805.59 548.507 1817.48 530.281 1822.17C504.928 1828.69 481.451 1825.34 460.999 1807.56C444.871 1793.53 435.959 1775.38 431.182 1755.14C428.807 1745.08 427.956 1734.6 427.073 1724.25C424.891 1698.67 429.487 1674.18 441.338 1651.45C451.992 1631.03 468.101 1616.09 491.247 1611.55C514.438 1606.99 536.474 1610.08 555.576 1625.94C568.995 1637.07 577.435 1651.22 583.296 1667.71Z" fill="black"/>
<path d="M225.144 1082.99C225.356 1082.94 225.672 1083.18 226.136 1083.7C225.939 1083.74 225.594 1083.51 225.144 1082.99Z" fill="#28C0E2"/>
<path d="M247.292 2070.21C230.675 2094.07 197.869 2095.71 179.78 2071.63C164.572 2051.39 167.562 2020.46 185.765 2003.84C201.264 1989.69 222.604 1988.82 238.81 2002.38C257.485 2018 260.814 2044.4 250.509 2064.99C249.65 2066.7 248.549 2068.3 247.292 2070.21Z" fill="black"/>
</g>
<defs>
<clipPath id="clip0_464_83">
<rect width="1414" height="2150" fill="white"/>
</clipPath>
</defs>
</svg>
